<svg width="104" height="92" viewBox="0 0 104 92" fill="none" xmlns="http://www.w3.org/2000/svg">
<path d="M64.4917 82.5478C70.0505 83.5888 72.3524 83.3365 75.0823 81.1357" stroke="black" stroke-width="1.5" stroke-linecap="round"/>
<path d="M71.905 28.8885C76.3538 25.9981 79.5048 26.1051 86.3789 29.5946" stroke="black" stroke-width="1.5" stroke-linecap="round"/>
<path d="M55.3131 29.9479C59.3238 27.4137 61.6238 27.6583 65.9038 30.3009" stroke="black" stroke-width="1.5" stroke-linecap="round"/>
<path d="M83.9078 37.7142C84.1894 32.7669 81.7992 31.5358 73.0586 32.7104C72.8874 32.7334 72.7648 32.5439 72.8642 32.4025C75.0892 29.2372 76.9724 28.7585 81.0836 29.9475" stroke="black"/>
<path d="M59.9023 28.1831C59.9023 30.3012 56.1575 35.4582 57.0782 34.184C58.6926 31.9494 62.0204 31.0073 66.6097 33.831C67.5658 39.6307 59.1962 40.1858 57.4311 33.8314M74.0231 32.7724C74.8163 40.5394 80.7305 40.1858 83.9077 36.6556" stroke="black"/>
<path d="M24.9533 31.3598C19.9329 32.3858 15.0569 33.3614 9.58764 34.1881C6.38837 34.6716 3.45903 36.5523 2.49335 39.6404C-1.58198 52.6729 2.78425 70.1198 14.3626 72.3103C15.6784 73.4183 16.247 74.3558 17.5398 75.191M24.9533 31.3598C44.2422 29.2649 60.8747 22.3644 78.0357 20.5427C78.6852 20.4737 79.1039 19.8142 78.8935 19.1958C75.4435 9.0543 76.2231 4.93697 81.9638 1.5033C82.5354 1.16146 83.2065 0.956692 83.8576 1.09675C85.5184 1.45404 86.026 2.78793 86.026 4.88324C86.3584 10.2012 84.8131 13.6416 84.3366 18.4454C84.2855 18.9606 84.6549 19.4117 85.1608 19.5213C85.6902 19.636 86.1409 19.7757 86.5616 19.9748C87.373 20.3589 88.5236 19.9054 88.5585 19.0083C88.9096 9.97154 90.6437 5.76997 95.4914 2.84912C96.8879 2.00771 98.5321 1.45634 100.132 1.76921C102.174 2.16853 102.905 3.67333 102.773 7.06807C102.721 8.42932 102.336 9.75353 101.783 10.9984L95.5576 25.0055C99.7876 28.6448 101.2 32.2967 101.912 42.3035C102.864 58.4672 102.448 67.0249 99.9973 80.3927C99.8678 81.0989 99.4895 81.7395 98.9135 82.168C84.0684 93.2118 58.6792 92.232 47.5242 88.1909C45.8749 87.5934 44.4772 86.4042 43.7989 84.7864C43.0833 83.0793 43.0091 81.5765 43.3104 79.3708C30.6211 80.1407 23.5318 79.062 17.5398 75.191M24.9533 31.3598C27.0714 30.6538 44.0164 73.0164 17.5398 75.191" stroke="black" stroke-width="2"/>
<path d="M3.41891 37.7143L4.12495 36.6552L5.89006 35.2431L8.36121 34.5371L24.9532 31.7129L27.4244 35.5961L28.8365 39.8324L30.6016 45.1277L31.6606 50.7761L32.0137 57.8365L30.9546 64.5439L28.4834 69.1332L24.9532 72.6634L21.423 74.4285L17.5398 74.7815L14.7156 72.3104L11.8914 71.2513L8.36121 69.1332L5.89006 66.662L4.47797 63.8378L3.41891 62.0727L3.06589 60.3076L2.00682 58.1895L1.6538 55.7184L1.30078 53.2472V50.7761V48.6579V45.4807L1.6538 43.0096L2.35985 40.8914L3.41891 37.7143Z" fill="black" stroke="black"/>
<path d="M61.3145 77.2528C70.345 76.4089 74.9193 74.8177 82.1427 69.8393M82.1427 69.8393C81.335 69.2161 80.6478 68.5289 80.0246 67.7212M82.1427 69.8393C83.1157 70.5879 83.7317 70.8913 84.9669 71.2514" stroke="black" stroke-width="1.5"/>
<path d="M82.4958 33.6046C83.616 39.1809 76.532 39.7721 76.989 33.2777C77.0266 32.743 77.5248 32.3705 78.0556 32.4449C79.9983 32.7172 81.1033 32.9991 82.4958 33.6046Z" fill="black" stroke="black" stroke-width="0.3"/>
<path d="M61.6674 32.419C60.6084 39.8324 66.2567 38.7734 66.2567 34.1844C64.3336 32.8339 63.3221 32.2131 61.6674 32.419Z" fill="black" stroke="black"/>
</svg>
