<svg width="32" height="32" viewBox="0 0 32 32" fill="none" xmlns="http://www.w3.org/2000/svg">
<g clip-path="url(#clip0_15_1192)">
<path d="M18.1211 16L31.0606 3.06055C31.6465 2.47511 31.6465 1.52491 31.0606 0.939465C30.4746 0.353525 29.5254 0.353525 28.9395 0.939465L16 13.8789L3.06055 0.939455C2.47461 0.353515 1.52539 0.353515 0.939465 0.939455C0.353525 1.5249 0.353525 2.4751 0.939465 3.06054L13.8789 16L0.939455 28.9395C0.353515 29.5249 0.353515 30.4751 0.939455 31.0605C1.23242 31.3535 1.61621 31.5 2.00001 31.5C2.3838 31.5 2.76759 31.3535 3.06055 31.0606L16 18.1211L28.9395 31.0605C29.2324 31.3535 29.6162 31.5 30 31.5C30.3838 31.5 30.7676 31.3535 31.0606 31.0606C31.6465 30.4751 31.6465 29.5249 31.0606 28.9395L18.1211 16Z" fill="#969FA8"/>
</g>
<defs>
<clipPath id="clip0_15_1192">
<rect width="32" height="32" fill="white"/>
</clipPath>
</defs>
</svg>
